
  <svg width="835.5" height="104.25" viewBox="0 0 4456 556" fill="none" xmlns="http://www.w3.org/2000/svg" xmlns:xlink="http://www.w3.org/1999/xlink" version="1.1">
    
        <g transform="translate(0, 0)">
          <svg width="256" height="256" viewBox="0 0 256 256" fill="none" xmlns="http://www.w3.org/2000/svg">
<rect width="256" height="256" rx="60" fill="#00005B"/>
<path d="M105.208 156.5H65.5082L57.4082 181.7C57.2082 182.7 56.3082 183.3 55.4082 183.2H35.3082C34.1082 183.2 33.8082 182.6 34.1082 181.3L68.5082 82.5C68.8082 81.4 69.1082 80.3 69.6082 79C70.1082 76.8 70.5082 74.5 70.5082 72.2C70.4082 71.7 70.8082 71.1 71.4082 71C71.5082 71 71.6082 71 71.7082 71H99.1082C99.8082 71 100.408 71.3 100.508 71.9L139.308 181.5C139.608 182.7 139.308 183.2 138.208 183.2H115.908C115.208 183.3 114.408 182.8 114.208 182L105.208 156.5ZM71.7082 135.2H98.8082C98.2082 133 97.3082 130.3 96.3082 127.5C95.3082 124.6 94.4082 121.5 93.4082 118.3C92.3082 115 91.4082 111.8 90.3082 108.5C89.2082 105.2 88.3082 102.1 87.4082 99C86.5082 96 85.8082 93.2 85.0082 90.7H84.8082C83.8082 95.3 82.7082 99.9 81.2082 104.5C79.6082 109.6 78.0082 115 76.3082 120.3C75.0082 125.7 73.3082 130.7 71.7082 135.2Z" fill="#9999FF"/>
<path d="M221.208 99.0002V164.5C221.208 167.4 221.208 169.9 221.308 172.2C221.408 174.4 221.508 176.4 221.608 178.1C221.808 179.8 221.908 180.8 222.008 181.9C222.108 182.9 221.708 183.3 220.808 183.3H202.508C201.608 183.4 200.808 182.9 200.508 182.1C200.308 181.2 200.108 180.3 199.908 179.4C199.708 178.7 199.708 177.9 199.708 177.2C196.308 180.3 192.108 182.5 187.608 183.8C183.808 184.9 179.708 185.4 175.708 185.4C171.708 185.4 167.808 184.9 164.108 183.6C160.708 182.4 157.508 180.4 155.008 177.7C152.208 174.7 150.208 171.2 149.008 167.3C147.508 162.4 146.808 157.3 146.908 152.1V99.1002C146.808 98.5002 147.208 97.8002 148.008 97.7002C148.108 97.7002 148.208 97.7002 148.308 97.7002H168.708C169.308 97.6002 170.008 98.0002 170.108 98.8002C170.108 98.9002 170.108 99.0002 170.108 99.1002V149.3C170.108 154 171.208 157.7 173.208 160.4C175.208 163.1 179.408 164.5 184.208 164.5C186.708 164.5 189.108 164.1 191.508 163.2C194.008 162.3 196.208 161.2 198.208 159.7V99.0002C198.208 98.3002 198.708 97.8002 199.708 97.8002H220.108C220.608 97.7002 221.308 98.1002 221.308 98.7002C221.208 98.8002 221.208 98.9002 221.208 99.0002Z" fill="#9999FF"/>
</svg>

        </g>
         
        <g transform="translate(300, 0)">
          <svg xmlns="http://www.w3.org/2000/svg" width="256" height="256" fill="none" viewBox="0 0 256 256"><rect width="256" height="256" fill="#00005B" rx="60"/><path fill="#99F" d="M105.157 156.12H65.4769L57.3702 181.293C57.1569 182.253 56.3035 182.893 55.3435 182.787H35.2902C34.1169 182.787 33.7969 182.147 34.1169 180.867L68.4635 82.4133C68.7835 81.3467 69.1035 80.3867 69.5302 79.1067C69.9569 76.8667 70.1702 74.52 70.1702 72.1733C70.0635 71.64 70.4902 71.1067 71.0235 71H71.3435H98.6502C99.3969 71 99.9302 71.32 100.037 71.8533L138.97 180.653C139.29 181.827 138.97 182.36 137.904 182.36H115.61C114.864 182.467 114.117 181.933 113.904 181.187L105.157 155.587V156.12ZM71.6635 134.893H98.7568C98.1168 132.653 97.2635 129.987 96.3035 127.213C95.3435 124.333 94.3835 121.24 93.4235 118.04C92.3569 114.733 91.3968 111.533 90.3302 108.227C89.2635 104.92 88.3035 101.827 87.4502 98.7333C86.5969 95.7467 85.8502 92.9733 85.1035 90.4133H84.8902C83.9302 95 82.7569 99.5867 81.2635 104.173C79.6635 109.293 78.0635 114.627 76.3569 119.96C74.9702 125.4 73.2635 130.413 71.6635 134.893V134.893Z"/><path fill="#99F" d="M201.797 146.52H167.984C168.41 149.827 169.477 153.133 171.29 156.013C173.21 158.893 175.877 161.133 179.077 162.413C183.344 164.227 188.037 165.187 192.73 165.08C196.464 164.973 200.197 164.653 203.824 163.907C207.13 163.48 210.33 162.627 213.317 161.453C213.85 161.027 214.17 161.24 214.17 162.307V178.627C214.17 179.053 214.064 179.48 213.957 179.907C213.744 180.227 213.53 180.44 213.21 180.653C209.797 182.147 206.277 183.213 202.544 183.853C197.53 184.813 192.517 185.24 187.397 185.133C179.29 185.133 172.464 183.853 166.917 181.4C161.69 179.16 157.104 175.64 153.477 171.267C150.064 167.107 147.61 162.413 146.117 157.293C144.624 152.28 143.877 147.053 143.877 141.72C143.877 135.96 144.73 130.307 146.544 124.76C148.25 119.427 150.917 114.52 154.544 110.147C158.064 105.88 162.437 102.467 167.45 100.013C172.464 97.56 178.437 96.7067 185.264 96.7067C190.917 96.6 196.57 97.6667 201.797 100.013C206.17 101.933 210.01 104.813 212.997 108.547C215.77 112.173 218.01 116.227 219.397 120.707C220.784 124.973 221.424 129.347 221.424 133.72C221.424 136.28 221.317 138.52 221.21 140.547C220.997 142.573 220.89 144.067 220.784 145.027C220.677 145.773 220.037 146.413 219.29 146.413C218.65 146.413 217.477 146.52 215.77 146.627C214.064 146.84 212.037 146.947 209.584 146.947C207.13 146.947 204.57 146.52 201.797 146.52V146.52ZM167.984 130.947H190.49C193.264 130.947 195.29 130.947 196.57 130.84C197.424 130.733 198.277 130.52 199.024 129.987V128.92C199.024 127.533 198.81 126.253 198.384 124.973C196.464 119 190.81 114.947 184.517 115.16C178.65 114.84 173.104 117.933 170.33 123.267C169.05 125.72 168.304 128.28 167.984 130.947Z"/></svg>
        </g>
         
        <g transform="translate(600, 0)">
          <svg xmlns="http://www.w3.org/2000/svg" width="256" height="256" fill="none" viewBox="0 0 256 256"><rect width="256" height="256" fill="#001E36" rx="60"/><path fill="#31A8FF" d="M57.6001 178.04V68.2799C57.6001 67.5332 57.9201 67.1066 58.6668 67.1066C60.4801 67.1066 62.1868 67.1066 64.6401 66.9999C67.2001 66.8932 69.8668 66.8932 72.7468 66.7866C75.6268 66.6799 78.7201 66.6799 82.0268 66.5732C85.3334 66.4666 88.5334 66.4666 91.7334 66.4666C100.48 66.4666 107.733 67.5332 113.707 69.7732C119.04 71.5866 123.947 74.5732 128 78.5199C131.413 81.9332 134.08 86.0932 135.787 90.6799C137.387 95.1599 138.24 99.7466 138.24 104.547C138.24 113.72 136.107 121.293 131.84 127.267C127.573 133.24 121.6 137.72 114.667 140.28C107.413 142.947 99.4134 143.907 90.6668 143.907C88.1068 143.907 86.4001 143.907 85.3334 143.8C84.2668 143.693 82.7734 143.693 80.7468 143.693V177.933C80.8534 178.68 80.3201 179.32 79.5734 179.427C79.4668 179.427 79.3601 179.427 79.1468 179.427H58.8801C58.0268 179.427 57.6001 179 57.6001 178.04ZM80.8534 87.6932V123.533C82.3468 123.64 83.7334 123.747 85.0134 123.747H90.6668C94.8268 123.747 98.9868 123.107 102.933 121.827C106.347 120.867 109.333 118.84 111.68 116.173C113.92 113.507 114.987 109.88 114.987 105.187C115.093 101.88 114.24 98.5732 112.533 95.6932C110.72 92.9199 108.16 90.7866 105.067 89.6132C101.12 88.0132 96.8534 87.3732 92.4801 87.4799C89.7068 87.4799 87.2534 87.4799 85.2268 87.5866C83.0934 87.4799 81.6001 87.5866 80.8534 87.6932Z"/><path fill="#31A8FF" d="M204.8 117.027C201.6 115.32 198.187 114.147 194.56 113.4C190.613 112.547 186.667 112.013 182.613 112.013C180.48 111.907 178.24 112.227 176.213 112.76C174.827 113.08 173.653 113.827 172.907 114.893C172.373 115.747 172.053 116.813 172.053 117.773C172.053 118.733 172.48 119.693 173.12 120.547C174.08 121.72 175.36 122.68 176.747 123.427C179.2 124.707 181.76 125.88 184.32 126.947C190.08 128.867 195.627 131.533 200.747 134.733C204.267 136.973 207.147 139.96 209.173 143.587C210.88 147 211.733 150.733 211.627 154.573C211.733 159.587 210.24 164.6 207.467 168.76C204.48 173.027 200.32 176.333 195.52 178.253C190.293 180.493 183.893 181.667 176.213 181.667C171.307 181.667 166.507 181.24 161.707 180.28C157.973 179.64 154.24 178.467 150.827 176.867C150.08 176.44 149.547 175.693 149.653 174.84V156.28C149.653 155.96 149.76 155.533 150.08 155.32C150.4 155.107 150.72 155.213 151.04 155.427C155.2 157.88 159.573 159.587 164.267 160.653C168.32 161.72 172.587 162.253 176.853 162.253C180.907 162.253 183.787 161.72 185.707 160.76C187.413 160.013 188.587 158.2 188.587 156.28C188.587 154.787 187.733 153.4 186.027 152.013C184.32 150.627 180.8 149.027 175.573 147C170.133 145.08 165.12 142.52 160.427 139.32C157.12 136.973 154.347 133.88 152.32 130.253C150.613 126.84 149.76 123.107 149.867 119.373C149.867 114.787 151.147 110.413 153.493 106.467C156.16 102.2 160.107 98.7866 164.693 96.6532C169.707 94.0932 176 92.9199 183.573 92.9199C187.947 92.9199 192.427 93.2399 196.8 93.8799C200 94.3066 203.093 95.1599 205.973 96.3332C206.4 96.4399 206.827 96.8666 207.04 97.2932C207.147 97.7199 207.253 98.1466 207.253 98.5732V115.96C207.253 116.387 207.04 116.813 206.72 117.027C205.76 117.24 205.227 117.24 204.8 117.027Z"/></svg>
        </g>
         
        <g transform="translate(900, 0)">
          <svg xmlns="http://www.w3.org/2000/svg" width="256" height="256" fill="none" viewBox="0 0 256 256"><rect width="256" height="256" fill="#242938" rx="60"/><path fill="#fff" d="M105.552 137.283C106.327 123.403 113.091 111.174 123.296 102.505C133.304 93.9907 146.775 88.7866 161.473 88.7866C176.156 88.7866 189.627 93.9907 199.642 102.505C209.84 111.174 216.604 123.403 217.386 137.268C218.16 151.53 212.455 164.779 202.447 174.6C192.242 184.59 177.727 190.859 161.473 190.859C145.219 190.859 130.675 184.59 120.477 174.6C110.461 164.779 104.771 151.53 105.552 137.283V137.283Z"/><path fill="#265787" d="M132.782 138.529C133.179 131.407 136.65 125.132 141.886 120.684C147.021 116.315 153.933 113.645 161.475 113.645C169.009 113.645 175.921 116.315 181.059 120.684C186.292 125.132 189.763 131.407 190.164 138.521C190.561 145.839 187.634 152.637 182.499 157.677C177.262 162.803 169.815 166.019 161.475 166.019C153.135 166.019 145.672 162.803 140.439 157.677C135.301 152.637 132.381 145.839 132.782 138.529V138.529Z"/><path fill="#EA7600" d="M87.0902 152.92C87.139 155.707 88.0235 161.123 89.3504 165.353C92.1392 174.305 96.8694 182.587 103.451 189.886C110.206 197.389 118.523 203.415 128.13 207.693C138.228 212.186 149.169 214.476 160.534 214.457C171.88 214.442 182.821 212.107 192.919 207.58C202.526 203.26 210.836 197.208 217.579 189.702C224.157 182.372 228.88 174.075 231.676 165.123C233.082 160.599 233.97 156.008 234.326 151.402C234.675 146.864 234.529 142.318 233.888 137.776C232.636 128.925 229.588 120.62 224.895 113.05C220.604 106.094 215.071 100.004 208.493 94.8777L208.508 94.8663L142.122 43.6486C142.062 43.6034 142.014 43.5545 141.95 43.5131C137.594 40.1535 130.27 40.1648 125.48 43.5319C120.637 46.9366 120.083 52.5672 124.393 56.1188L124.374 56.1376L152.063 78.7617L67.6704 78.8521H67.558C60.5825 78.8597 53.8768 83.4583 52.5499 89.2697C51.1855 95.1903 55.9233 100.101 63.1762 100.128L63.165 100.154L105.94 100.071L29.6104 158.942C29.513 159.014 29.408 159.089 29.3181 159.161C22.1176 164.701 19.79 173.913 24.3254 179.743C28.9283 185.672 38.715 185.683 45.9904 179.777L87.6487 145.519C87.6487 145.519 87.0415 150.144 87.0902 152.92V152.92ZM194.137 168.407C185.554 177.194 173.537 182.177 160.534 182.203C147.512 182.226 135.495 177.288 126.912 168.516C122.718 164.241 119.636 159.323 117.736 154.084C115.873 148.935 115.15 143.47 115.63 137.956C116.083 132.567 117.68 127.426 120.229 122.775C122.733 118.202 126.181 114.071 130.439 110.576C138.783 103.744 149.405 100.045 160.515 100.03C171.636 100.015 182.251 103.679 190.603 110.489C194.853 113.969 198.298 118.086 200.802 122.65C203.362 127.298 204.947 132.42 205.419 137.825C205.892 143.331 205.168 148.788 203.305 153.941C201.401 159.195 198.331 164.113 194.137 168.407V168.407Z"/></svg>
        </g>
         
        <g transform="translate(1200, 0)">
          <svg xmlns="http://www.w3.org/2000/svg" width="256" height="256" fill="none" viewBox="0 0 256 256"><rect width="256" height="256" fill="#242938" rx="60"/><path fill="#81CD39" d="M119.878 31.1164C124.797 28.3008 131.203 28.2883 136.117 31.1164C160.839 45.0855 185.569 59.0332 210.287 73.0108C214.937 75.6296 218.046 80.8038 217.999 86.1608V170.206C218.034 175.785 214.617 181.083 209.712 183.642C185.071 197.535 160.442 211.444 135.805 225.337C130.786 228.207 124.251 227.986 119.387 224.88C112 220.598 104.6 216.336 97.2121 212.058C95.7022 211.158 94.0004 210.442 92.9345 208.978C93.8766 207.708 95.5618 207.55 96.9309 206.995C100.014 206.014 102.847 204.44 105.679 202.913C106.396 202.423 107.27 202.611 107.957 203.049C114.274 206.671 120.536 210.399 126.874 213.986C128.226 214.767 129.595 213.73 130.751 213.086C154.931 199.419 179.141 185.805 203.318 172.134C204.214 171.703 204.709 170.752 204.636 169.771C204.653 142.046 204.64 114.317 204.645 86.5918C204.747 85.4785 204.103 84.455 203.096 83.999C178.541 70.1702 153.997 56.3205 129.446 42.4882C128.575 41.8893 127.426 41.8878 126.554 42.4837C102.002 56.3205 77.4638 70.1832 52.9124 84.011C51.9092 84.4675 51.236 85.4745 51.3554 86.5918C51.3596 114.317 51.3554 142.046 51.3554 169.775C51.2682 170.756 51.801 171.687 52.6906 172.109C59.2422 175.824 65.8024 179.513 72.3582 183.216C76.0516 185.203 80.5863 186.385 84.6555 184.862C88.2463 183.574 90.7633 179.909 90.6948 176.097C90.7288 148.534 90.6778 120.967 90.7203 93.4078C90.6309 92.1841 91.7912 91.1731 92.981 91.2885C96.1292 91.267 99.281 91.2461 102.429 91.297C103.743 91.267 104.647 92.5847 104.485 93.8174C104.472 121.555 104.519 149.293 104.464 177.03C104.472 184.423 101.435 192.467 94.5973 196.084C86.1737 200.447 75.7619 199.522 67.4399 195.338C60.2355 191.742 53.3603 187.498 46.2838 183.646C41.3661 181.101 37.966 175.782 38.0006 170.207V86.1608C37.949 80.6929 41.1825 75.4248 45.9764 72.8445C70.6133 58.9408 95.2461 45.0261 119.878 31.1164Z"/><path fill="#81CD39" d="M141.372 89.3351C152.117 88.6433 163.62 88.9255 173.289 94.2185C180.776 98.2754 184.926 106.789 185.058 115.106C184.849 116.227 183.676 116.846 182.605 116.769C179.488 116.765 176.369 116.812 173.252 116.748C171.929 116.799 171.161 115.58 170.995 114.411C170.099 110.431 167.928 106.49 164.183 104.57C158.433 101.692 151.767 101.837 145.497 101.897C140.92 102.139 135.998 102.536 132.12 105.227C129.143 107.266 128.239 111.382 129.301 114.697C130.303 117.077 133.05 117.845 135.299 118.553C148.248 121.94 161.97 121.602 174.672 126.059C179.931 127.876 185.075 131.409 186.875 136.915C189.23 144.295 188.198 153.115 182.947 159.039C178.689 163.914 172.488 166.568 166.303 168.009C158.075 169.844 149.536 169.891 141.18 169.076C133.323 168.18 125.146 166.116 119.081 160.763C113.894 156.259 111.361 149.241 111.612 142.469C111.672 141.325 112.811 140.527 113.907 140.621C117.046 140.596 120.186 140.587 123.325 140.626C124.58 140.536 125.509 141.62 125.574 142.802C126.152 146.593 127.577 150.573 130.884 152.82C137.264 156.937 145.271 156.655 152.577 156.77C158.63 156.502 165.425 156.421 170.364 152.42C172.97 150.138 173.742 146.32 173.038 143.036C172.275 140.263 169.374 138.971 166.883 138.126C154.1 134.083 140.224 135.55 127.565 130.977C122.425 129.161 117.455 125.727 115.481 120.447C112.726 112.974 113.988 103.73 119.789 98.0061C125.445 92.312 133.609 90.1192 141.372 89.3346V89.3351"/></svg>
        </g>
         
        <g transform="translate(1500, 0)">
          <svg xmlns="http://www.w3.org/2000/svg" width="256" height="256" fill="none" viewBox="0 0 256 256"><rect width="256" height="256" fill="#2396ED" rx="60"/><path fill="#fff" d="M141.187 122.123H161.904V103.379H141.187V122.123ZM116.525 122.123H137.241V103.379H116.525V122.123ZM92.3554 122.123H113.072V103.379H92.3554V122.123ZM68.1859 122.123H88.4093V103.379H68.1859V122.123ZM43.5233 122.123H64.2399V103.379H43.5233V122.123ZM68.1859 99.4333H88.4093V80.6896H68.1859V99.4333ZM92.3554 99.4333H113.072V80.6896H92.3554V99.4333ZM116.525 99.4333H137.241V80.6896H116.525V99.4333ZM116.525 76.7436H137.241V58H116.525V76.7436ZM228 113.738C228 113.738 219.121 105.352 200.871 108.312C198.898 94.0075 183.607 85.6222 183.607 85.6222C183.607 85.6222 169.303 102.886 179.661 122.123C176.702 123.603 171.769 125.576 164.37 125.576H28.7257C26.2594 134.948 26.2594 197.097 94.3284 197.097C143.16 197.097 179.661 174.408 196.925 132.974C222.574 134.948 228 113.738 228 113.738Z"/></svg>
        </g>
         
        <g transform="translate(1800, 0)">
          <svg xmlns="http://www.w3.org/2000/svg" width="256" height="256" fill="none" viewBox="0 0 256 256"><rect width="256" height="256" fill="#F03C2E" rx="60"/><g clip-path="url(#clip0_7_283)"><path fill="#fff" d="M224.225 119.094L136.906 31.775C135.711 30.5787 134.291 29.6298 132.729 28.9824C131.166 28.3349 129.491 28.0017 127.8 28.0017C126.109 28.0017 124.434 28.3349 122.871 28.9824C121.309 29.6298 119.889 30.5787 118.694 31.775L100.569 49.9L123.569 72.9C128.919 71.025 135.044 72.3062 139.306 76.5687C141.335 78.6014 142.752 81.1638 143.394 83.9632C144.036 86.7626 143.878 89.6862 142.937 92.4L165.106 114.569C170.469 112.719 176.656 113.912 180.937 118.206C182.361 119.63 183.49 121.32 184.26 123.18C185.03 125.04 185.426 127.033 185.426 129.046C185.425 131.059 185.029 133.052 184.258 134.912C183.487 136.771 182.358 138.461 180.934 139.884C179.511 141.308 177.821 142.436 175.961 143.206C174.101 143.977 172.108 144.373 170.095 144.372C168.082 144.372 166.088 143.975 164.229 143.205C162.369 142.434 160.679 141.305 159.256 139.881C154.756 135.381 153.644 128.756 155.919 123.212L135.244 102.537V156.944C136.745 157.686 138.116 158.666 139.306 159.844C140.729 161.267 141.858 162.956 142.629 164.816C143.399 166.675 143.795 168.668 143.795 170.681C143.795 172.694 143.399 174.687 142.629 176.546C141.858 178.406 140.729 180.096 139.306 181.519C137.883 182.942 136.193 184.071 134.334 184.841C132.474 185.611 130.481 186.008 128.469 186.008C126.456 186.008 124.463 185.611 122.604 184.841C120.744 184.071 119.054 182.942 117.631 181.519C116.206 180.096 115.076 178.407 114.305 176.548C113.533 174.688 113.136 172.694 113.136 170.681C113.136 168.668 113.533 166.675 114.305 164.815C115.076 162.955 116.206 161.266 117.631 159.844C119.112 158.369 120.756 157.25 122.65 156.5V101.587C120.825 100.837 119.112 99.7312 117.631 98.2437C115.479 96.0943 114.016 93.3526 113.428 90.3684C112.841 87.3841 113.155 84.2924 114.331 81.4875L91.6437 58.8125L31.7687 118.625C30.5716 119.821 29.6219 121.241 28.9739 122.804C28.3259 124.367 27.9924 126.042 27.9924 127.734C27.9924 129.426 28.3259 131.102 28.9739 132.665C29.6219 134.228 30.5716 135.648 31.7687 136.844L119.094 224.156C120.289 225.352 121.709 226.301 123.271 226.949C124.834 227.596 126.509 227.929 128.2 227.929C129.891 227.929 131.566 227.596 133.129 226.949C134.691 226.301 136.111 225.352 137.306 224.156L224.225 137.375C225.422 136.179 226.372 134.759 227.02 133.196C227.668 131.633 228.001 129.958 228.001 128.266C228.001 126.574 227.668 124.898 227.02 123.335C226.372 121.772 225.422 120.352 224.225 119.156"/></g><defs><clipPath id="clip0_7_283"><rect width="200" height="200" fill="#fff" transform="translate(28 28)"/></clipPath></defs></svg>
        </g>
         
        <g transform="translate(2100, 0)">
          <svg width="256" height="256" viewBox="0 0 256 256" fill="none" xmlns="http://www.w3.org/2000/svg">
<rect width="256" height="256" rx="60" fill="#242938"/>
<path d="M128.001 30C72.7791 30 28 74.7708 28 130.001C28 174.184 56.6533 211.668 96.3867 224.891C101.384 225.817 103.219 222.722 103.219 220.081C103.219 217.696 103.126 209.819 103.083 201.463C75.2631 207.512 69.3927 189.664 69.3927 189.664C64.8437 178.105 58.2894 175.032 58.2894 175.032C49.2163 168.825 58.9733 168.953 58.9733 168.953C69.0151 169.658 74.3026 179.258 74.3026 179.258C83.2217 194.546 97.6965 190.126 103.403 187.571C104.301 181.107 106.892 176.696 109.752 174.199C87.5405 171.67 64.1913 163.095 64.1913 124.778C64.1913 113.86 68.0977 104.939 74.4947 97.9362C73.4564 95.4175 70.0335 85.2465 75.4635 71.4722C75.4635 71.4722 83.8609 68.7845 102.971 81.7226C110.948 79.5069 119.502 78.3958 128.001 78.3577C136.499 78.3958 145.061 79.5069 153.052 81.7226C172.139 68.7845 180.525 71.4722 180.525 71.4722C185.968 85.2465 182.544 95.4175 181.505 97.9362C187.917 104.939 191.797 113.86 191.797 124.778C191.797 163.187 168.403 171.644 146.135 174.119C149.722 177.223 152.918 183.308 152.918 192.638C152.918 206.018 152.802 216.787 152.802 220.081C152.802 222.742 154.602 225.86 159.671 224.878C199.383 211.64 228 174.169 228 130.001C228 74.7708 183.227 30 128.001 30ZM65.4536 172.453C65.2333 172.95 64.4517 173.099 63.7396 172.758C63.0143 172.432 62.6069 171.754 62.8421 171.256C63.0574 170.744 63.8406 170.602 64.5643 170.945C65.2913 171.271 65.7053 171.955 65.4536 172.453ZM70.3725 176.842C69.8956 177.285 68.9633 177.079 68.3307 176.38C67.6766 175.683 67.554 174.751 68.0376 174.302C68.5294 173.86 69.4336 174.067 70.0893 174.764C70.7434 175.47 70.8709 176.395 70.3725 176.842ZM73.7471 182.458C73.1344 182.884 72.1325 182.485 71.5132 181.595C70.9004 180.706 70.9004 179.64 71.5264 179.212C72.1474 178.785 73.1344 179.169 73.762 180.052C74.373 180.956 74.373 182.023 73.7471 182.458ZM79.4542 188.962C78.9061 189.566 77.7386 189.404 76.8841 188.579C76.0098 187.773 75.7663 186.629 76.3161 186.024C76.8709 185.418 78.045 185.589 78.9061 186.407C79.7738 187.211 80.0387 188.364 79.4542 188.962ZM86.8301 191.157C86.5883 191.941 85.4639 192.297 84.3312 191.964C83.2002 191.621 82.46 190.704 82.6885 189.912C82.9237 189.124 84.053 188.753 85.194 189.109C86.3234 189.45 87.0652 190.361 86.8301 191.157ZM95.2242 192.089C95.2523 192.913 94.2919 193.597 93.1029 193.612C91.9073 193.639 90.9402 192.971 90.9269 192.16C90.9269 191.327 91.8659 190.65 93.0615 190.63C94.2505 190.607 95.2242 191.269 95.2242 192.089ZM103.47 191.773C103.613 192.577 102.787 193.404 101.606 193.624C100.445 193.836 99.3702 193.339 99.2229 192.541C99.0788 191.716 99.92 190.89 101.079 190.676C102.262 190.471 103.32 190.955 103.47 191.773Z" fill="white"/>
</svg>

        </g>
         
        <g transform="translate(2400, 0)">
          <svg width="256" height="256" viewBox="0 0 256 256" fill="none" xmlns="http://www.w3.org/2000/svg">
<rect width="256" height="256" rx="60" fill="#D34A47"/>
<path d="M154.431 231.368L156.541 196.196L162.37 186.247C162.37 186.247 149.104 191.673 126.897 191.673C104.688 191.673 91.6241 186.347 91.6241 186.347L98.1559 197.2L100.467 231.368C100.467 235.031 112.547 238 127.449 238C142.35 238 154.431 235.031 154.431 231.368ZM147.772 67.121L152.203 49.6091L176.737 23.7929L170.271 18.2852L144.296 45.7858L139.152 66.7079C135.28 66.5782 131.407 66.5138 127.533 66.5146C100.177 66.5146 78 69.6324 78 73.4774C78 77.3228 100.177 80.4402 127.533 80.4402C154.889 80.4402 177.066 77.3228 177.066 73.4774C177.066 70.6459 165.038 68.2088 147.772 67.121Z" fill="white"/>
<path d="M145.195 76.9284C145.195 76.9284 144.236 77.1435 141.413 77.1555C138.59 77.1672 136.586 77.1373 135.787 76.4099C135.572 76.2147 135.455 75.8269 135.456 75.5644C135.458 75.0646 135.813 74.7702 136.265 74.5858L136.692 75.2563C136.507 75.3205 136.4 75.3964 136.4 75.4773C136.398 75.8569 139.287 76.1167 141.496 76.0887C143.705 76.0614 146.375 75.8794 146.377 75.5053C146.377 75.3921 146.176 75.2855 145.824 75.2015L146.25 74.5356C146.822 74.7134 147.322 75.0568 147.321 75.6511C147.316 76.6616 146.03 76.8152 145.195 76.9284Z" fill="white"/>
<path d="M176.689 23.8443C177.306 23.1318 176.37 21.3092 174.598 19.7741C172.826 18.2397 170.889 17.5731 170.271 18.2856C169.654 18.9981 170.59 20.8207 172.363 22.3551C174.134 23.8898 176.072 24.5572 176.689 23.8443ZM153.251 145.458C152.669 139.863 165.487 131.761 162.198 131.502C155.116 131.906 151.591 139.801 148.028 148.069C146.723 151.099 142.255 164.02 139.325 162.43C136.395 160.84 143.123 150.214 145.008 143.904C142.832 145.499 134.853 151.699 132.797 145.893C129.491 148.701 122.427 150.222 123.224 142.847C121.465 145.962 117.518 150.311 112.78 148.504C106.557 146.131 116.385 126.31 118.829 127.31C121.273 128.31 118.336 132.825 117.566 134.578C115.874 138.437 113.92 143.288 115.226 144.281C117.462 145.982 123.549 137.845 123.685 137.666C124.823 136.162 128.066 126.322 130.681 127.452C133.295 128.582 124.16 141.574 127.576 144.152C128.264 144.673 131.083 143.831 132.797 141.976C133.906 140.777 133.525 138.119 137.222 129.301C140.92 120.483 144.216 109.502 146.751 110.339C149.287 111.175 147.197 116.811 146.287 118.912C142.018 128.773 134.636 145.065 138.118 143.831C141.599 142.598 143.412 142.526 146.821 138.537C150.23 134.547 150.073 127.976 152.345 128.116C154.618 128.256 154.237 130.363 153.685 131.967C155.922 129.408 164.286 124.018 166.306 129.356C168.698 135.676 154.338 144.805 157.919 144.339C161.409 143.885 167.064 140.304 169.479 137.047L176.125 77.2961C176.125 77.2961 169.437 82.8306 126.89 82.8306C84.3421 82.8306 78.3462 77.4112 78.3462 77.4112L84.0045 131.95C87.0078 123.414 94.1398 106.148 105.382 106.727C110.495 106.991 117.322 116.838 111.474 117.172C108.999 117.312 108.748 112.257 105.817 111.514C103.702 110.978 100.757 112.698 98.8541 114.561C95.0589 118.275 86.8962 132.93 87.9747 140.236C89.3489 149.551 100.828 136.999 102.771 133.273C104.139 130.648 105.063 122.871 108.054 123.687C111.047 124.503 107.793 132.529 105.625 139.625C103.188 147.593 101.908 155.998 98.8541 155.032C95.8002 154.065 100.775 143.779 100.595 141.976C97.7242 144.625 92.4362 151.329 85.6711 148.011L89.1851 181.879C89.1851 181.879 98.5247 189.258 126.659 189.258C154.794 189.258 164.479 181.994 164.479 181.994L168.843 142.767C165.273 146.243 153.974 152.416 153.251 145.458Z" fill="white"/>
</svg>

        </g>
         
        <g transform="translate(2700, 0)">
          <svg xmlns="http://www.w3.org/2000/svg" width="256" height="256" fill="none" viewBox="0 0 256 256"><rect width="256" height="256" fill="#E14E1D" rx="60"/><path fill="#fff" d="M48 38L56.6098 134.593H167.32L163.605 176.023L127.959 185.661L92.38 176.037L90.0012 149.435H57.9389L62.5236 200.716L127.951 218.888L193.461 200.716L202.244 102.655H85.8241L82.901 69.9448H205.041H205.139L208 38H48Z"/><path fill="#EBEBEB" d="M128 38H48L56.6098 134.593H128V102.655H85.8241L82.901 69.9448H128V38Z"/><path fill="#EBEBEB" d="M128 185.647L127.959 185.661L92.38 176.037L90.0012 149.435H57.9388L62.5236 200.716L127.951 218.888L128 218.874V185.647Z"/></svg>
        </g>
         
        <g transform="translate(3000, 0)">
          <svg width="256" height="256" viewBox="0 0 256 256" fill="none" xmlns="http://www.w3.org/2000/svg">
<rect width="256" height="256" rx="60" fill="#F0DB4F"/>
<path d="M67.3117 213.932L86.9027 202.076C90.6821 208.777 94.1202 214.447 102.367 214.447C110.272 214.447 115.256 211.355 115.256 199.327V117.529H139.314V199.667C139.314 224.584 124.708 235.926 103.398 235.926C84.1533 235.926 72.9819 225.959 67.3113 213.93" fill="#323330"/>
<path d="M152.381 211.354L171.969 200.013C177.126 208.434 183.828 214.62 195.684 214.62C205.653 214.62 212.009 209.636 212.009 202.762C212.009 194.514 205.479 191.592 194.481 186.782L188.468 184.203C171.111 176.815 159.597 167.535 159.597 147.945C159.597 129.901 173.345 116.153 194.826 116.153C210.12 116.153 221.118 121.481 229.022 135.4L210.291 147.429C206.166 140.04 201.7 137.119 194.826 137.119C187.78 137.119 183.312 141.587 183.312 147.429C183.312 154.646 187.78 157.568 198.09 162.037L204.104 164.614C224.553 173.379 236.067 182.313 236.067 202.418C236.067 224.072 219.055 235.928 196.2 235.928C173.861 235.928 159.426 225.274 152.381 211.354" fill="#323330"/>
</svg>

        </g>
         
        <g transform="translate(3300, 0)">
          <svg width="256" height="256" viewBox="0 0 256 256" fill="none" xmlns="http://www.w3.org/2000/svg">
<rect width="256" height="256" rx="60" fill="#0277BD"/>
<path d="M53.7527 102.651L56.6155 134.593H128.096V102.651H53.7527Z" fill="#EBEBEB"/>
<path d="M128.095 38H127.985H48L50.9036 69.9423H128.095V38Z" fill="#EBEBEB"/>
<path d="M128.095 218.841V185.608L127.955 185.645L92.3813 176.04L90.1072 150.564H72.821H58.0425L62.5175 200.718L127.948 218.882L128.095 218.841Z" fill="#EBEBEB"/>
<path d="M167.318 134.593L163.61 176.019L127.985 185.635V218.866L193.468 200.718L193.948 195.321L201.454 111.229L202.233 102.651L208 38H127.985V69.9423H172.994L170.088 102.651H127.985V134.593H167.318Z" fill="white"/>
</svg>

        </g>
         
        <g transform="translate(3600, 0)">
          <svg width="256" height="256" viewBox="0 0 256 256" fill="none" xmlns="http://www.w3.org/2000/svg">
<rect width="256" height="256" rx="60" fill="#242938"/>
<path d="M41.6364 203.028H73.4545V125.755L28 91.6646V189.392C28 196.937 34.1136 203.028 41.6364 203.028Z" fill="#4285F4"/>
<path d="M182.545 203.028H214.364C221.909 203.028 228 196.915 228 189.392V91.6646L182.545 125.755" fill="#34A853"/>
<path d="M182.545 66.6643V125.755L228 91.6643V73.4825C228 56.6189 208.75 47.0052 195.273 57.1189" fill="#FBBC04"/>
<path d="M73.4545 125.755V66.6646L128 107.574L182.545 66.6646V125.755L128 166.665" fill="#EA4335"/>
<path d="M28 73.4825V91.6643L73.4545 125.755V66.6643L60.7273 57.1189C47.2273 47.0052 28 56.6189 28 73.4825Z" fill="#C5221F"/>
</svg>

        </g>
         
        <g transform="translate(3900, 0)">
          <svg xmlns="http://www.w3.org/2000/svg" width="256" height="256" fill="none" viewBox="0 0 256 256"><rect width="256" height="256" fill="#00005B" rx="60"/><path fill="#99F" d="M54 182.68V72.8133C54 72.0667 54.32 71.64 55.0667 71.64C56.88 71.64 58.5867 71.64 61.04 71.5333C63.6 71.4267 66.2667 71.4267 69.1467 71.32C72.0267 71.2133 75.12 71.2133 78.4267 71.1067C81.7333 71 84.9333 71 88.1333 71C96.88 71 104.133 72.0667 110.107 74.3067C115.44 76.12 120.347 79.1067 124.4 83.0533C127.813 86.4667 130.48 90.6267 132.187 95.2133C133.787 99.6933 134.64 104.28 134.64 109.08C134.64 118.253 132.507 125.827 128.24 131.8C123.973 137.773 118 142.253 111.067 144.813C103.813 147.48 95.8133 148.44 87.0667 148.44C84.5067 148.44 82.8 148.44 81.7333 148.333C80.6667 148.227 79.1733 148.227 77.1467 148.227V182.467C77.2533 183.213 76.72 183.853 75.9733 183.96H75.5467H55.28C54.4267 183.96 54 183.533 54 182.573V182.68ZM77.2533 92.3333V128.173C78.7467 128.28 80.1333 128.387 81.4133 128.387H87.0667C91.2267 128.387 95.3867 127.747 99.3333 126.467C102.747 125.507 105.733 123.48 108.08 120.813C110.32 118.147 111.387 114.52 111.387 109.827C111.493 106.52 110.64 103.213 108.933 100.333C107.12 97.56 104.56 95.4267 101.467 94.2533C97.52 92.6533 93.2533 92.0133 88.88 92.12C86.1067 92.12 83.6533 92.12 81.6267 92.2267C79.4933 92.12 78 92.2267 77.2533 92.3333V92.3333Z"/><path fill="#99F" d="M150 98.6267H168.667C169.734 98.6267 170.587 99.3733 170.907 100.333C171.227 101.187 171.44 102.04 171.547 103C171.76 104.067 171.974 105.24 172.08 106.307C172.187 107.48 172.294 108.76 172.294 110.147C175.494 106.413 179.334 103.32 183.707 100.973C188.614 98.2 194.267 96.8133 199.92 96.8133C200.667 96.7067 201.307 97.24 201.414 97.9867V98.4133V119.213C201.414 120.067 200.88 120.387 199.707 120.387C195.867 120.28 191.92 120.6 188.187 121.453C185.094 122.093 182.107 123.053 179.227 124.333C177.2 125.293 175.28 126.573 173.787 128.28V182.68C173.787 183.747 173.36 184.173 172.4 184.173H151.387C150.534 184.28 149.787 183.747 149.68 182.893V182.467V123.373C149.68 120.813 149.68 118.147 149.574 115.373C149.467 112.6 149.467 109.827 149.36 107.053C149.36 104.6 149.147 102.253 148.934 99.8C148.827 99.2667 149.147 98.7333 149.68 98.6267C149.68 98.52 149.894 98.52 150 98.6267V98.6267Z"/></svg>
        </g>
         
        <g transform="translate(4200, 0)">
          <svg width="256" height="256" viewBox="0 0 256 256" fill="none" xmlns="http://www.w3.org/2000/svg">
<g clip-path="url(#clip0_36_1186)">
<path d="M196 0H60C26.8629 0 0 26.8629 0 60V196C0 229.137 26.8629 256 60 256H196C229.137 256 256 229.137 256 196V60C256 26.8629 229.137 0 196 0Z" fill="#242938"/>
<g clip-path="url(#clip1_36_1186)">
<path d="M50.4451 66.8836L40.1711 180.411L99.7602 214.829L112.26 200.445L199.589 138.459L213.459 110.205L180.068 82.2945L114.144 40L50.4451 66.8836Z" fill="url(#paint0_linear_36_1186)"/>
<path d="M73.048 130.068L47.363 168.082L111.575 200.616L174.418 73.904L170.137 40.1711L131.781 73.904L73.048 130.068Z" fill="url(#paint1_linear_36_1186)"/>
<path d="M213.459 110.377L180.068 82.8081V142.055L199.76 138.459L213.459 110.377Z" fill="#09C4EF"/>
<path d="M160.205 214.829L90.5137 194.623L93.0822 181.438L181.952 118.767L193.253 114.486L214.829 197.021L160.205 214.829Z" fill="url(#paint2_linear_36_1186)"/>
<path d="M181.438 73.5615H73.2192V181.781H181.438V73.5615Z" fill="black"/>
<path d="M103.528 87.9453H83.322V132.637H92.9111V119.281H103.185L105.411 118.938L107.98 118.254L110.548 117.226L112.26 116.199L113.973 114.829L115.685 112.945L117.397 110.206L118.254 107.637L118.596 104.384L118.425 101.13L117.74 98.2193L116.712 95.6508L115.514 93.7672L113.973 92.2261L112.432 91.0275L110.891 90.0001L109.349 89.3152L108.151 88.8015L106.61 88.459L104.897 88.1165L103.528 87.9453Z" fill="white" stroke="black"/>
<path d="M101.815 96.678H93.0823V110.377H102.158L103.87 109.863L105.582 109.178L106.952 107.979L107.98 106.267L108.493 104.555V102.329L108.151 101.13L107.466 99.7602L106.438 98.5615L105.24 97.7054L103.699 97.0204L101.815 96.678Z" fill="black" stroke="black"/>
<path d="M123.904 161.575H83.4932V168.082H123.904V161.575Z" fill="white"/>
<path d="M169.795 110.365L169.795 110.371V110.377C169.795 115.414 167.585 120.727 163.845 124.938C159.652 129.658 153.549 132.979 146.507 132.979C133.163 132.979 122.877 123.4 122.877 110.548C122.877 104.107 124.962 98.2442 128.997 93.9939C133.03 89.7449 139.025 87.0918 146.874 87.0918C153.549 87.0918 159.501 89.9045 163.673 94.2284C167.832 98.5397 170.218 104.349 169.795 110.365Z" fill="white" stroke="black"/>
<path d="M160.377 109.863C160.209 117.567 155.411 124.075 145.479 124.075C137.346 124.075 132.808 117.145 132.808 109.863C132.808 102.581 137.86 96.3357 145.993 96.3357C154.126 96.3357 160.548 101.986 160.377 109.863Z" fill="black"/>
<path d="M157.294 101.473L163.801 94.1096L171.678 102.842V116.199L163.801 124.932L157.466 118.767L157.294 101.473Z" fill="black" stroke="black"/>
</g>
</g>
<defs>
<linearGradient id="paint0_linear_36_1186" x1="113.801" y1="40" x2="97.5342" y2="215" gradientUnits="userSpaceOnUse">
<stop stop-color="#2CD788"/>
<stop offset="0.37966" stop-color="#24D68E"/>
<stop offset="1" stop-color="#1ED593"/>
</linearGradient>
<linearGradient id="paint1_linear_36_1186" x1="169.623" y1="40.3424" x2="64.3151" y2="174.76" gradientUnits="userSpaceOnUse">
<stop stop-color="#ADE46C"/>
<stop offset="0.886667" stop-color="#59DC7E"/>
<stop offset="1" stop-color="#1FD593"/>
</linearGradient>
<linearGradient id="paint2_linear_36_1186" x1="99.2465" y1="215" x2="215" y2="197.021" gradientUnits="userSpaceOnUse">
<stop stop-color="#BAE768"/>
<stop offset="0.993345" stop-color="#FBF849"/>
<stop offset="1" stop-color="#FAF748"/>
</linearGradient>
<clipPath id="clip0_36_1186">
<rect width="256" height="256" fill="white"/>
</clipPath>
<clipPath id="clip1_36_1186">
<rect width="175" height="175" fill="white" transform="translate(40 40)"/>
</clipPath>
</defs>
</svg>

        </g>
         
        <g transform="translate(0, 300)">
          <svg width="256" height="256" viewBox="0 0 256 256" fill="none" xmlns="http://www.w3.org/2000/svg">
<rect width="256" height="256" rx="60" fill="#242938"/>
<path d="M128 34L223 198.853H33L128 34Z" fill="white"/>
</svg>

        </g>
         
        <g transform="translate(300, 300)">
          <svg width="256" height="256" viewBox="0 0 256 256" fill="none" xmlns="http://www.w3.org/2000/svg">
<rect width="256" height="256" rx="60" fill="#242938"/>
<path d="M227.088 57.6016L133.256 225.389C131.318 228.854 126.341 228.874 124.375 225.427L28.6823 57.6177C26.54 53.861 29.7524 49.3105 34.0096 50.0715L127.942 66.8613C128.541 66.9684 129.155 66.9674 129.754 66.8582L221.722 50.0955C225.965 49.3222 229.192 53.8374 227.088 57.6016Z" fill="url(#paint0_linear_307_179)"/>
<path d="M172.687 28.0492L103.249 41.6554C102.107 41.879 101.262 42.8462 101.194 44.007L96.9221 116.148C96.8216 117.847 98.3821 119.166 100.04 118.783L119.373 114.322C121.182 113.905 122.816 115.498 122.445 117.317L116.701 145.443C116.314 147.336 118.092 148.954 119.94 148.393L131.881 144.765C133.732 144.203 135.511 145.826 135.119 147.721L125.991 191.9C125.42 194.664 129.096 196.171 130.629 193.801L131.653 192.219L188.235 79.2992C189.183 77.4085 187.549 75.2526 185.472 75.6534L165.573 79.494C163.703 79.8545 162.112 78.113 162.639 76.2834L175.628 31.2582C176.156 29.4255 174.559 27.6825 172.687 28.0492Z" fill="url(#paint1_linear_307_179)"/>
<defs>
<linearGradient id="paint0_linear_307_179" x1="26.3459" y1="44.075" x2="143.127" y2="202.673" gradientUnits="userSpaceOnUse">
<stop stop-color="#41D1FF"/>
<stop offset="1" stop-color="#BD34FE"/>
</linearGradient>
<linearGradient id="paint1_linear_307_179" x1="122.551" y1="31.7433" x2="143.676" y2="176.66" gradientUnits="userSpaceOnUse">
<stop stop-color="#FFEA83"/>
<stop offset="0.0833333" stop-color="#FFDD35"/>
<stop offset="1" stop-color="#FFA800"/>
</linearGradient>
</defs>
</svg>

        </g>
         
        <g transform="translate(600, 300)">
          <svg xmlns="http://www.w3.org/2000/svg" width="256" height="256" fill="none" viewBox="0 0 256 256"><rect width="256" height="256" fill="#242938" rx="60"/><path fill="#41B883" d="M182 50H218L128 205.25L38 50H73.55H106.85L128 86L148.7 50H182Z"/><path fill="#41B883" d="M38 50L128 205.25L218 50H182L128 143.15L73.55 50H38Z"/><path fill="#fff" d="M73.55 50L128 143.6L182 50H148.7L128 86L106.85 50H73.55Z"/></svg>
        </g>
         
        <g transform="translate(900, 300)">
          <svg width="256" height="256" viewBox="0 0 256 256" fill="none" xmlns="http://www.w3.org/2000/svg">
<g clip-path="url(#clip0_33_480)">
<path d="M196 0H60C26.8629 0 0 26.8629 0 60V196C0 229.137 26.8629 256 60 256H196C229.137 256 256 229.137 256 196V60C256 26.8629 229.137 0 196 0Z" fill="#242938"/>
<path d="M40 65.6631L110.968 55.9983L111 124.453L40.0656 124.857L40 65.6631ZM110.935 132.34L110.99 200.855L40.0557 191.102L40.0517 131.881L110.935 132.34ZM119.537 54.7335L213.636 41V123.582L119.537 124.33V54.7335ZM213.658 132.984L213.636 215.195L119.537 201.914L119.406 132.831L213.658 132.984Z" fill="#00ADEF"/>
</g>
<defs>
<clipPath id="clip0_33_480">
<rect width="256" height="256" fill="white"/>
</clipPath>
</defs>
</svg>

        </g>
         
        <g transform="translate(1200, 300)">
          <svg xmlns="http://www.w3.org/2000/svg" width="256" height="256" fill="none" viewBox="0 0 256 256"><rect width="256" height="256" fill="#0073AA" rx="60"/><path fill="#fff" d="M42.2141 127.994C42.2141 161.949 61.9469 191.293 90.561 205.199L49.641 93.0829C44.8813 103.752 42.2141 115.558 42.2141 127.994Z"/><path fill="#fff" d="M185.908 123.665C185.908 113.064 182.1 105.722 178.834 100.007C174.485 92.9408 170.409 86.9568 170.409 79.8906C170.409 72.005 176.39 64.6646 184.814 64.6646C185.195 64.6646 185.555 64.7119 185.926 64.7332C170.664 50.7509 150.331 42.2141 127.997 42.2141C98.0286 42.2141 71.6621 57.5903 56.3235 80.8798C58.3361 80.9402 60.2328 80.9826 61.8439 80.9826C70.8166 80.9826 84.7058 79.8939 84.7058 79.8939C89.3301 79.6213 89.8753 86.4133 85.2559 86.9601C85.2559 86.9601 80.6087 87.5069 75.4376 87.7779L106.676 180.696L125.449 124.393L112.084 87.7746C107.465 87.5037 103.089 86.9568 103.089 86.9568C98.466 86.6859 99.008 79.6181 103.631 79.8906C103.631 79.8906 117.797 80.9794 126.226 80.9794C135.198 80.9794 149.088 79.8906 149.088 79.8906C153.716 79.6181 154.259 86.41 149.638 86.9568C149.638 86.9568 144.981 87.5037 139.82 87.7746L170.821 179.989L179.377 151.397C183.086 139.531 185.908 131.009 185.908 123.665Z"/><path fill="#fff" d="M129.503 135.498L103.765 210.288C111.449 212.547 119.577 213.783 127.998 213.783C137.987 213.783 147.567 212.056 156.484 208.92C156.254 208.553 156.045 208.163 155.874 207.738L129.503 135.498Z"/><path fill="#fff" d="M203.269 86.8375C203.638 89.5699 203.847 92.5032 203.847 95.6584C203.847 104.363 202.221 114.149 197.324 126.385L171.121 202.144C196.624 187.272 213.778 159.643 213.778 127.996C213.779 113.081 209.97 99.0568 203.269 86.8375Z"/><path fill="#fff" d="M127.998 28C72.8603 28 28 72.857 28 127.994C28 183.138 72.8603 227.993 127.998 227.993C183.133 227.993 228 183.138 228 127.994C227.998 72.857 183.133 28 127.998 28ZM127.998 223.41C75.3887 223.41 32.5851 180.606 32.5851 127.994C32.5851 75.3855 75.3871 32.5851 127.998 32.5851C180.605 32.5851 223.405 75.3855 223.405 127.994C223.405 180.606 180.605 223.41 127.998 223.41Z"/></svg>
        </g>
         
        <g transform="translate(1500, 300)">
          <svg width="256" height="256" viewBox="0 0 256 256" fill="none" xmlns="http://www.w3.org/2000/svg">
<rect width="256" height="256" rx="60" fill="#242938"/>
<path fill-rule="evenodd" clip-rule="evenodd" d="M36.4065 203.248C35.1443 203.286 33.8902 203.033 32.7411 202.51C31.5921 201.986 30.5788 201.205 29.7794 200.227C28.9801 199.169 28.4302 197.943 28.1705 196.643C27.9108 195.342 27.9482 193.999 28.2797 192.715L58.2516 61.7869C58.9172 59.073 60.4491 56.6499 62.6152 54.8845C64.7813 53.1191 67.4636 52.1077 70.2561 52.0034H219.594C220.856 51.9671 222.11 52.2206 223.258 52.7442C224.407 53.2679 225.421 54.0478 226.221 55.0242C227.02 56.083 227.57 57.3084 227.829 58.6091C228.089 59.9098 228.052 61.2524 227.721 62.5368L197.728 193.472C197.062 196.186 195.53 198.609 193.364 200.374C191.198 202.14 188.516 203.151 185.723 203.255H36.4065V203.248Z" fill="url(#paint0_linear_258_44)"/>
<path fill-rule="evenodd" clip-rule="evenodd" d="M70.2557 53.6861H219.594C220.64 53.6433 221.681 53.853 222.628 54.2974C223.576 54.7418 224.403 55.4078 225.039 56.2393C225.675 57.0707 226.101 58.043 226.282 59.0741C226.463 60.1051 226.393 61.1645 226.078 62.1628L196.085 193.091C195.494 195.427 194.168 197.512 192.302 199.039C190.437 200.565 188.13 201.451 185.723 201.567H36.4062C35.3602 201.61 34.3194 201.401 33.3716 200.956C32.4239 200.512 31.597 199.846 30.961 199.014C30.325 198.183 29.8986 197.21 29.7177 196.179C29.5368 195.148 29.6069 194.089 29.9219 193.091L59.9152 62.1628C60.504 59.8289 61.8265 57.7457 63.688 56.2197C65.5495 54.6938 67.8517 53.8057 70.2557 53.6861V53.6861Z" fill="url(#paint1_linear_258_44)"/>
<path fill-rule="evenodd" clip-rule="evenodd" d="M128.286 167.219H164.606C166.663 167.306 168.607 168.185 170.032 169.671C171.457 171.158 172.253 173.137 172.253 175.196C172.253 177.255 171.457 179.234 170.032 180.721C168.607 182.207 166.663 183.086 164.606 183.173H128.286C126.229 183.086 124.285 182.207 122.86 180.721C121.435 179.234 120.639 177.255 120.639 175.196C120.639 173.137 121.435 171.158 122.86 169.671C124.285 168.185 126.229 167.306 128.286 167.219V167.219Z" fill="#2C5591"/>
<path fill-rule="evenodd" clip-rule="evenodd" d="M151.846 131.756C150.806 133.505 149.358 134.975 147.625 136.041L80.2186 184.423C78.3415 185.644 76.0674 186.098 73.8654 185.691C71.6634 185.284 69.7015 184.048 68.3843 182.237C67.0671 180.426 66.4952 178.179 66.7864 175.959C67.0777 173.739 68.2099 171.715 69.9495 170.305L130.736 126.286V125.386L92.5445 84.7812C91.1206 83.0683 90.4045 80.8765 90.5422 78.6533C90.6799 76.4302 91.6611 74.3435 93.2855 72.8194C94.9098 71.2953 97.0547 70.4489 99.2821 70.4529C101.51 70.4569 103.651 71.3111 105.27 72.841L151.103 121.594C152.334 122.967 153.076 124.709 153.21 126.549C153.344 128.388 152.864 130.219 151.846 131.756Z" fill="#2C5591"/>
<path fill-rule="evenodd" clip-rule="evenodd" d="M150.138 130.071C149.103 131.821 147.657 133.291 145.925 134.356L78.54 182.745C76.6623 183.94 74.3996 184.375 72.2127 183.96C70.0258 183.546 68.0791 182.313 66.7692 180.513C65.4593 178.714 64.8847 176.482 65.1624 174.274C65.44 172.065 66.5491 170.046 68.2637 168.626L129.057 124.608V123.701L90.8658 83.0741C89.4286 81.3622 88.7018 79.1648 88.8348 76.9335C88.9679 74.7023 89.9507 72.6067 91.5811 71.0778C93.2116 69.5488 95.3659 68.7025 97.6011 68.713C99.8363 68.7234 101.983 69.5898 103.599 71.134L149.424 119.887C150.661 121.262 151.403 123.011 151.532 124.856C151.662 126.701 151.171 128.537 150.138 130.071V130.071Z" fill="white"/>
<path fill-rule="evenodd" clip-rule="evenodd" d="M127.287 166.278H163.607C165.613 166.278 167.536 167.075 168.955 168.493C170.373 169.911 171.17 171.835 171.17 173.84C171.17 175.846 170.373 177.77 168.955 179.188C167.536 180.606 165.613 181.403 163.607 181.403H127.287C125.281 181.403 123.357 180.606 121.939 179.188C120.521 177.77 119.724 175.846 119.724 173.84C119.724 171.835 120.521 169.911 121.939 168.493C123.357 167.075 125.281 166.278 127.287 166.278V166.278Z" fill="white"/>
<defs>
<linearGradient id="paint0_linear_258_44" x1="180.31" y1="174.355" x2="65.5857" y2="71.8775" gradientUnits="userSpaceOnUse">
<stop stop-color="#5391FE"/>
<stop offset="1" stop-color="#3E6DBF"/>
</linearGradient>
<linearGradient id="paint1_linear_258_44" x1="64.4427" y1="70.5109" x2="177.996" y2="172.56" gradientUnits="userSpaceOnUse">
<stop stop-color="#5391FE"/>
<stop offset="1" stop-color="#3E6DBF"/>
</linearGradient>
</defs>
</svg>

        </g>
        
  </svg>
  